#
#
#

mtllib player_standing_V9.mtl


#
#  Mesh
#
g  Mesh

v 0.246226 -0.113766 0.000000
v 0.102917 -0.023918 0.000000
v -0.094129 -0.023862 0.000000
v -0.235345 -0.108703 0.000000
v -0.267058 -0.216428 0.000000
v -0.147828 -1.001943 0.000000
v 0.160031 -1.004441 0.000000
v 0.263952 -0.221495 0.000000
vn 0.000000 0.000000 1.000000
vn -0.000000 -0.000000 -1.000000
vt 0.853636 0.889606
vt 0.647812 0.977270
vt 0.364810 0.977324
vt 0.161991 0.894546
vt 0.116444 0.789442
vt 0.287685 0.023032
vt 0.729841 0.020594
vt 0.879095 0.784498
vt 0.000000 0.000000
f 1/1/1 2/2/1 3/3/1 4/4/1 5/5/1 6/6/1 7/7/1 8/8/1
f 5/9/2 4/9/2 3/9/2
f 2/9/2 1/9/2 8/9/2
f 5/9/2 3/9/2 8/9/2
f 8/9/2 6/9/2 5/9/2
f 7/9/2 6/9/2 8/9/2
f 3/9/2 2/9/2 8/9/2
